@startuml
'https://plantuml.com/class-diagram

abstract class NhanVienF88 {
    String chucVu, ten
    int hanMucDuyetVay
    void duyetChoVay(int khoanVay)
    void setCapTren(NhanVienF88 capTren)
}

class ChuTich
class NhanVienChoVayF88

NhanVienF88 <|-- ChuTich
NhanVienF88 <|-- NhanVienChoVayF88
NhanVienChoVayF88 --> NhanVienF88 : "Cấp trên"


@enduml