@startuml
'https://plantuml.com/class-diagram

abstract class ChuyenXe {
    - String maSoChuyen
    - String hoTenTaiXe
    - String soXe
    - double doanhThu
}

class ChuyenXeNoiThanh {
    - String soTuyen
    - int soKmDiDuoc
}

class ChuyenXeNgoaiThanh {
    - String noiDen
    - int soNgayDi
}

ChuyenXeNoiThanh <|-- ChuyenXe
ChuyenXeNgoaiThanh <|-- ChuyenXe

@enduml